<svg width="32" height="32" viewBox="0 0 32 32" fill="none" xmlns="http://www.w3.org/2000/svg">
<g clip-path="url(#clip0_108_298)">
<path d="M16 9.20386C12.2527 9.20386 9.20386 12.2527 9.20386 16C9.20386 19.7473 12.2527 22.7961 16 22.7961C19.7473 22.7961 22.7961 19.7473 22.7961 16C22.7961 12.2527 19.7473 9.20386 16 9.20386ZM15.4504 15.5H16.5496C17.5784 15.5 18.4153 16.3369 18.4153 17.3657C18.4153 18.3943 17.5784 19.2312 16.5496 19.2312H16.5V19.6663C16.5 19.9424 16.2761 20.1663 16 20.1663C15.7239 20.1663 15.5 19.9424 15.5 19.6663V19.2312H15.3635C14.3826 19.2312 13.5847 18.4333 13.5847 17.4524C13.5847 17.1763 13.8086 16.9524 14.0847 16.9524C14.3608 16.9524 14.5847 17.1763 14.5847 17.4524C14.5847 17.8818 14.9341 18.2312 15.3635 18.2312H16.5496C17.0269 18.2312 17.4153 17.843 17.4153 17.3657C17.4153 16.8884 17.0269 16.5 16.5496 16.5H15.4504C14.4216 16.5 13.5847 15.6631 13.5847 14.6343C13.5847 13.6055 14.4216 12.7686 15.4504 12.7686H15.5V12.3335C15.5 12.0574 15.7239 11.8335 16 11.8335C16.2761 11.8335 16.5 12.0574 16.5 12.3335V12.7686H16.6365C17.6174 12.7686 18.4153 13.5667 18.4153 14.5476C18.4153 14.8237 18.1914 15.0476 17.9153 15.0476C17.6392 15.0476 17.4153 14.8237 17.4153 14.5476C17.4153 14.1179 17.0659 13.7686 16.6365 13.7686H15.4504C14.9731 13.7686 14.5847 14.157 14.5847 14.6343C14.5847 15.1116 14.9731 15.5 15.4504 15.5Z" fill="black"/>
<path d="M23.4391 10.0535C24.4277 11.2867 25.0973 12.7622 25.3756 14.3204C25.4226 14.5833 25.6504 14.7749 25.9171 14.7765L31.3948 14.8076H31.398C31.555 14.8076 31.7047 14.7409 31.8095 14.6241C31.9152 14.5066 31.9657 14.3494 31.9479 14.1924C31.568 10.8176 30.1537 7.70439 27.8587 5.18967C27.752 5.07294 27.5928 5.00323 27.4423 5.00944C27.2842 5.01161 27.1346 5.08132 27.0311 5.20101L23.452 9.34557C23.2778 9.54768 23.2721 9.84517 23.4391 10.0535Z" fill="black"/>
<path d="M21.0867 7.86111C21.2432 7.86111 21.3975 7.79491 21.5058 7.66954L25.0884 3.52093C25.1916 3.40124 25.2389 3.2429 25.2181 3.08619C25.1973 2.92947 25.1105 2.78924 24.9795 2.70061C22.3248 0.905694 19.2213 -0.0429688 16.0049 -0.0429688C13.7906 -0.0429688 11.6415 0.403127 9.61741 1.28262C9.47231 1.34558 9.36126 1.4677 9.31209 1.61793C9.26291 1.76816 9.2802 1.93244 9.35991 2.06889L12.1227 6.80329C12.2572 7.03377 12.538 7.13563 12.7876 7.04512C15.4699 6.08159 18.4023 6.37665 20.8074 7.78519C20.8946 7.83625 20.9911 7.86111 21.0867 7.86111Z" fill="black"/>
<path d="M14.3496 25.3799C9.78737 24.579 6.4761 20.636 6.4761 16.0046C6.4761 13.2397 7.68307 10.612 9.78737 8.79492C9.9892 8.62064 10.0381 8.32748 9.90382 8.09727L7.14295 3.36585C7.06324 3.22913 6.92868 3.13321 6.77359 3.10213C6.61714 3.07079 6.45719 3.10808 6.331 3.20346C2.28048 6.26966 -0.0426788 10.9354 -0.0426788 16.0046C-0.0426788 24.2059 6.09836 31.0624 14.2416 31.9538C14.2618 31.956 14.2818 31.957 14.3018 31.957C14.4383 31.957 14.5707 31.9065 14.6731 31.8141C14.7903 31.7079 14.8565 31.5569 14.8552 31.3988L14.8074 25.92C14.8049 25.6531 14.6125 25.4261 14.3496 25.3799Z" fill="black"/>
<path d="M31.3791 17.3761L25.9065 17.345H25.9033C25.6377 17.345 25.4094 17.5339 25.3596 17.7949C24.6385 21.5842 21.6101 24.6223 17.8241 25.355C17.562 25.4058 17.3734 25.6363 17.3758 25.9033L17.4237 31.3742C17.425 31.5323 17.4939 31.6822 17.6131 31.7863C17.7144 31.8746 17.8441 31.9227 17.977 31.9227C18.0003 31.9227 18.0235 31.9214 18.0467 31.9184C25.3156 30.9935 31.0224 25.2691 31.9249 17.9976C31.9443 17.8408 31.896 17.6831 31.7917 17.5642C31.6871 17.4455 31.5372 17.3769 31.3791 17.3761Z" fill="black"/>
</g>
<defs>
<clipPath id="clip0_108_298">
<rect width="32" height="32" fill="white"/>
</clipPath>
</defs>
</svg>
