<svg width="32" height="32" viewBox="0 0 32 32" fill="none" xmlns="http://www.w3.org/2000/svg">
<path d="M7.64993 13.8594H7.20699C5.56149 13.8616 3.98403 14.5163 2.82049 15.6799C1.65694 16.8434 1.00227 18.4209 1 20.0664V24.7949C1.00227 26.4404 1.65694 28.0179 2.82049 29.1814C3.98403 30.345 5.56149 30.9997 7.20699 31.0019H7.64993C9.29543 30.9997 10.8729 30.345 12.0364 29.1814C13.2 28.0179 13.8547 26.4404 13.8569 24.7949V20.0664C13.8547 18.4209 13.2 16.8434 12.0364 15.6799C10.8729 14.5163 9.29543 13.8616 7.64993 13.8594ZM4.80712 20.0521V24.8092C4.80712 24.9987 4.73187 25.1804 4.59791 25.3143C4.46396 25.4483 4.28228 25.5235 4.09285 25.5235C3.90341 25.5235 3.72173 25.4483 3.58778 25.3143C3.45383 25.1804 3.37857 24.9987 3.37857 24.8092V20.0521C3.38013 18.9784 3.80731 17.9492 4.56648 17.1901C5.32564 16.4309 6.35484 16.0037 7.42846 16.0022C7.6179 16.0022 7.79957 16.0774 7.93353 16.2114C8.06748 16.3454 8.14273 16.527 8.14273 16.7165C8.14273 16.9059 8.06748 17.0876 7.93353 17.2215C7.79957 17.3555 7.6179 17.4307 7.42846 17.4307C6.73375 17.4324 6.06798 17.7091 5.57675 18.2004C5.08551 18.6916 4.80879 19.3574 4.80712 20.0521ZM8.14273 20.7164V24.1449C8.14273 24.3343 8.06748 24.516 7.93353 24.65C7.79957 24.7839 7.6179 24.8592 7.42846 24.8592C7.23902 24.8592 7.05734 24.7839 6.92339 24.65C6.78944 24.516 6.71419 24.3343 6.71419 24.1449V20.7164C6.71419 20.527 6.78944 20.3453 6.92339 20.2113C7.05734 20.0774 7.23902 20.0021 7.42846 20.0021C7.6179 20.0021 7.79957 20.0774 7.93353 20.2113C8.06748 20.3453 8.14273 20.527 8.14273 20.7164ZM11.4783 24.8093C11.4768 25.8829 11.0496 26.9121 10.2904 27.6712C9.53127 28.4304 8.50207 28.8576 7.42846 28.8591C7.23902 28.8591 7.05734 28.7839 6.92339 28.6499C6.78944 28.516 6.71419 28.3343 6.71419 28.1448C6.71419 27.9554 6.78944 27.7737 6.92339 27.6398C7.05734 27.5058 7.23902 27.4306 7.42846 27.4306C8.12317 27.4289 8.78894 27.1522 9.28017 26.661C9.77141 26.1697 10.0481 25.5039 10.0498 24.8092V20.0521C10.0498 19.8626 10.125 19.681 10.259 19.547C10.3929 19.413 10.5746 19.3378 10.7641 19.3378C10.9535 19.3378 11.1352 19.413 11.2691 19.547C11.4031 19.681 11.4783 19.8626 11.4783 20.0521V24.8093Z" fill="#2563EB"/>
<path d="M18.1974 6.57887C18.4166 6.57865 18.6322 6.63525 18.8231 6.74315L21.3293 8.17588V1H15.0654V8.17552L17.5703 6.74419C17.7614 6.63557 17.9775 6.57859 18.1974 6.57887Z" fill="#2563EB"/>
<path d="M28.8572 1H22.7573V8.45697C22.7586 8.67846 22.7012 8.89634 22.5907 9.08834C22.4803 9.28035 22.3209 9.4396 22.1288 9.54981C21.9376 9.66727 21.7174 9.7291 21.493 9.72838C21.2721 9.72723 21.0554 9.66812 20.8645 9.55695L18.2003 8.02848L15.5289 9.55695C15.3363 9.66639 15.1183 9.72342 14.8968 9.72234C14.6753 9.72127 14.4579 9.66213 14.2664 9.55083C14.0748 9.43953 13.9158 9.27995 13.8052 9.08802C13.6946 8.89608 13.6362 8.6785 13.636 8.45697V1H7.42895C6.86116 1.00167 6.31709 1.22797 5.9156 1.62946C5.5141 2.03096 5.2878 2.57502 5.28613 3.14282V13.0426C5.9125 12.8729 6.55852 12.7864 7.20749 12.7855H7.65042C9.58019 12.7874 11.4304 13.5549 12.7949 14.9194C14.1595 16.284 14.9269 18.1341 14.9288 20.0639V24.7925C14.9322 26.2413 14.4991 27.6575 13.686 28.8567H28.8572C29.4249 28.855 29.969 28.6287 30.3705 28.2272C30.772 27.8257 30.9983 27.2816 31 26.7138V3.14282C30.9983 2.57502 30.772 2.03096 30.3705 1.62946C29.969 1.22797 29.4249 1.00167 28.8572 1ZM26.7143 24.571H19.5716C19.3822 24.571 19.2005 24.4958 19.0665 24.3618C18.9326 24.2279 18.8573 24.0462 18.8573 23.8567C18.8573 23.6673 18.9326 23.4856 19.0665 23.3517C19.2005 23.2177 19.3822 23.1425 19.5716 23.1425H26.7143C26.9038 23.1425 27.0854 23.2177 27.2194 23.3517C27.3534 23.4856 27.4286 23.6673 27.4286 23.8567C27.4286 24.0462 27.3534 24.2279 27.2194 24.3618C27.0854 24.4958 26.9038 24.571 26.7143 24.571ZM26.7143 21.7139H19.5716C19.3822 21.7139 19.2005 21.6387 19.0665 21.5047C18.9326 21.3708 18.8573 21.1891 18.8573 20.9997C18.8573 20.8102 18.9326 20.6285 19.0665 20.4946C19.2005 20.3606 19.3822 20.2854 19.5716 20.2854H26.7143C26.9038 20.2854 27.0854 20.3606 27.2194 20.4946C27.3534 20.6285 27.4286 20.8102 27.4286 20.9997C27.4286 21.1891 27.3534 21.3708 27.2194 21.5047C27.0854 21.6387 26.9038 21.7139 26.7143 21.7139Z" fill="#2563EB"/>
</svg>
